<?xml version="1.0" encoding="UTF-8"?>
<svg id="Layer_1" data-name="Layer 1" xmlns="http://www.w3.org/2000/svg" viewBox="0 0 1008.22 360">
  <defs>
    <style>
      .cls-1 {
        fill: #f9b81c;
      }

      .cls-2 {
        fill: #231f20;
      }
    </style>
  </defs>
  <text/>
  <text/>
  <path class="cls-1" d="M205.22,215.88c-26.31,24.34-67.36,24.35-93.68-.71-27.39-26.08-28.46-69.43-2.38-96.82,26.08-27.39,69.43-28.46,96.82-2.38l30.42-31.95c-45.04-42.88-116.31-41.13-159.19,3.91-42.88,45.04-41.13,116.31,3.91,159.19,43.97,41.86,112.94,41.19,156.1-.77l-32-30.46Z"/>
  <path d="M307.84,178.08c0,26.3-17.89,43.12-44.2,43.12s-44.2-16.82-44.2-43.12v-23.72c0-26.3,17.89-43.12,44.2-43.12s44.2,16.82,44.2,43.12v23.72ZM249.63,180.24c0,9.06,5.17,15.52,14.01,15.52s14.01-6.47,14.01-15.52v-28.03c0-9.06-5.17-15.52-14.01-15.52s-14.01,6.47-14.01,15.52v28.03Z"/>
  <path d="M316.47,219.05v-105.64h26.52l2.16,11.43c4.53-7.33,12.29-13.58,22.64-13.58,2.16,0,4.53.22,6.9.86v28.46c-3.02-.65-6.9-1.08-9.92-1.08-9.06,0-18.11,3.45-18.11,15.95v63.6h-30.18Z"/>
  <path d="M406.8,122.46c5.17-6.68,13.37-11.21,24.58-11.21,23.93,0,35.57,17.68,35.57,41.83v26.3c0,24.15-11.64,41.83-35.57,41.83-9.92,0-17.46-3.67-22.64-9.06v47.22h-30.18V113.4h26.52l1.72,9.06ZM408.74,153.07v26.3c0,9.06,5.61,15.52,14.44,15.52s13.58-6.47,13.58-15.52v-26.3c0-9.06-4.74-15.52-13.58-15.52s-14.44,6.47-14.44,15.52Z"/>
  <path d="M560.74,178.08c0,26.3-17.9,43.12-44.2,43.12s-44.2-16.82-44.2-43.12v-23.72c0-26.3,17.9-43.12,44.2-43.12s44.2,16.82,44.2,43.12v23.72ZM502.53,180.24c0,9.06,5.17,15.52,14.01,15.52s14.01-6.47,14.01-15.52v-28.03c0-9.06-5.17-15.52-14.01-15.52s-14.01,6.47-14.01,15.52v28.03Z"/>
  <path d="M569.37,219.05v-105.64h26.52l2.16,11.43c4.53-7.33,12.29-13.58,22.64-13.58,2.16,0,4.53.22,6.9.86v28.46c-3.02-.65-6.9-1.08-9.92-1.08-9.06,0-18.11,3.45-18.11,15.95v63.6h-30.18Z"/>
  <path d="M628.22,153.07c0-24.15,11.64-41.83,35.57-41.83,11.21,0,19.4,4.74,24.58,11.21l1.73-9.06h26.52v105.64h-26.52l-1.73-9.06c-5.17,6.68-13.37,11.21-24.58,11.21-23.93,0-35.57-17.68-35.57-41.83v-26.3ZM686.44,179.38v-26.3c0-9.06-5.61-15.52-14.44-15.52s-13.58,6.47-13.58,15.52v26.3c0,9.06,4.74,15.52,13.58,15.52s14.44-6.47,14.44-15.52Z"/>
  <path d="M721.58,114.48h16.17v-28.89h30.18v28.89h16.6v25.44h-16.6v79.12h-30.18v-79.12h-16.17v-25.44Z"/>
  <path d="M871.64,181.75v.65c0,23.72-17.25,38.81-42.26,38.81s-43.55-16.82-43.55-43.12v-23.72c0-26.3,17.68-43.12,43.55-43.12s42.26,16.82,42.26,43.12v17.9h-56.27v9.06c0,9.27,5.6,15.95,14.44,15.95s13.15-5.82,13.15-14.44v-1.08h28.67ZM815.37,152.21h27.6v-1.51c0-9.06-5.17-15.52-13.58-15.52-8.84,0-14.01,6.47-14.01,15.52v1.51Z"/>
  <rect class="cls-1" x="898.93" y="251.15" width="63.13" height="63.13" rx="9.76" ry="9.76"/>
  <path class="cls-2" d="M221.96,221.17l-4.84,4.71c-15.62,15.19-36.23,23.63-58.05,23.77h-.55c-21.68,0-42.24-8.22-57.95-23.19-33.58-31.96-34.89-85.28-2.92-118.85,15.48-16.27,36.37-25.53,58.82-26.08,22.47-.57,43.77,7.67,60.04,23.16l4.7,4.48-29.92,31.43-4.7-4.49c-7.87-7.49-18.19-11.46-29.05-11.2-10.86.27-20.97,4.75-28.47,12.62-7.49,7.87-11.47,18.18-11.2,29.04.27,10.87,4.75,20.98,12.62,28.47,15.5,14.76,39.94,14.95,55.64.43l4.48-4.15,31.35,29.85Z"/>
  <g>
    <path d="M555.67,266.69c2.58-4.82,6.16-8.55,10.76-11.21,4.59-2.65,9.84-3.98,15.76-3.98,7.66,0,13.98,1.86,18.95,5.58,4.97,3.72,8.25,8.88,9.84,15.48h-11.15c-1.06-3.79-3.13-6.79-6.2-8.99-3.07-2.2-6.89-3.3-11.44-3.3-5.92,0-10.7,2.03-14.34,6.09-3.64,4.06-5.46,9.81-5.46,17.24s1.82,13.32,5.46,17.41c3.64,4.1,8.42,6.15,14.34,6.15,4.55,0,8.35-1.06,11.38-3.19,3.03-2.12,5.12-5.16,6.26-9.11h11.15c-1.67,6.37-5.01,11.48-10.02,15.31-5.01,3.83-11.27,5.75-18.78,5.75-5.92,0-11.17-1.33-15.76-3.98-4.59-2.66-8.18-6.41-10.76-11.27-2.58-4.86-3.87-10.55-3.87-17.07s1.29-12.08,3.87-16.9Z"/>
    <path d="M642.91,254.34c3.38-1.97,7.49-2.96,12.35-2.96v10.7h-2.73c-11.61,0-17.41,6.3-17.41,18.89v33.92h-10.36v-62.37h10.36v10.13c1.82-3.57,4.42-6.33,7.8-8.31Z"/>
    <path d="M667.21,266.69c2.58-4.82,6.13-8.55,10.64-11.21,4.51-2.65,9.54-3.98,15.08-3.98s10.2,1.18,14.23,3.53c4.02,2.35,7.02,5.31,8.99,8.88v-11.38h10.47v62.37h-10.47v-11.61c-2.05,3.64-5.1,6.66-9.16,9.05-4.06,2.39-8.78,3.58-14.17,3.58s-10.55-1.37-15.02-4.1c-4.48-2.73-8.01-6.56-10.58-11.5-2.58-4.93-3.87-10.54-3.87-16.84s1.29-11.97,3.87-16.79ZM713.31,271.3c-1.9-3.49-4.46-6.16-7.68-8.02-3.23-1.86-6.77-2.79-10.64-2.79s-7.4.91-10.58,2.73c-3.19,1.82-5.73,4.48-7.62,7.97-1.9,3.49-2.85,7.59-2.85,12.29s.95,8.93,2.85,12.46c1.9,3.53,4.44,6.22,7.62,8.08,3.19,1.86,6.71,2.79,10.58,2.79s7.42-.93,10.64-2.79c3.22-1.86,5.79-4.55,7.68-8.08,1.9-3.53,2.84-7.64,2.84-12.35s-.95-8.8-2.84-12.29Z"/>
    <path d="M769.53,261.06h-13.09v53.83h-10.36v-53.83h-8.08v-8.54h8.08v-4.44c0-6.98,1.8-12.08,5.41-15.31,3.6-3.22,9.39-4.84,17.36-4.84v8.65c-4.55,0-7.76.89-9.62,2.67-1.86,1.78-2.79,4.72-2.79,8.82v4.44h13.09v8.54Z"/>
    <path d="M794.23,261.06v36.76c0,3.04.64,5.18,1.94,6.43,1.29,1.25,3.53,1.88,6.71,1.88h7.62v8.76h-9.33c-5.77,0-10.09-1.33-12.98-3.98-2.88-2.66-4.32-7.02-4.32-13.09v-36.76h-8.08v-8.54h8.08v-15.71h10.36v15.71h16.28v8.54h-16.28Z"/>
    <path d="M832.24,313.47c-3.79-1.63-6.79-3.91-8.99-6.83-2.2-2.92-3.42-6.28-3.64-10.07h10.7c.3,3.11,1.76,5.65,4.38,7.63,2.62,1.97,6.05,2.96,10.3,2.96,3.94,0,7.06-.87,9.33-2.62,2.28-1.74,3.41-3.94,3.41-6.6s-1.21-4.76-3.64-6.09c-2.43-1.33-6.19-2.64-11.27-3.93-4.63-1.21-8.41-2.45-11.33-3.7-2.92-1.25-5.43-3.11-7.51-5.58-2.09-2.46-3.13-5.71-3.13-9.73,0-3.19.95-6.11,2.85-8.76,1.9-2.66,4.59-4.76,8.08-6.32,3.49-1.55,7.47-2.33,11.95-2.33,6.9,0,12.48,1.75,16.73,5.24,4.25,3.49,6.52,8.27,6.83,14.34h-10.36c-.23-3.26-1.54-5.88-3.93-7.85-2.39-1.97-5.6-2.96-9.62-2.96-3.72,0-6.68.8-8.88,2.39-2.2,1.59-3.3,3.68-3.3,6.26,0,2.05.66,3.74,1.99,5.06,1.33,1.33,3,2.39,5.01,3.19,2.01.8,4.8,1.69,8.37,2.67,4.48,1.21,8.12,2.41,10.93,3.58,2.81,1.18,5.22,2.94,7.23,5.29,2.01,2.35,3.05,5.43,3.13,9.22,0,3.41-.95,6.49-2.85,9.22-1.9,2.73-4.57,4.88-8.02,6.43-3.45,1.55-7.42,2.33-11.89,2.33-4.78,0-9.07-.82-12.86-2.45Z"/>
  </g>
</svg>