<?xml version="1.0" encoding="UTF-8"?>
<svg id="Layer_1" data-name="Layer 1" xmlns="http://www.w3.org/2000/svg" viewBox="0 0 1008.22 360">
  <defs>
    <style>
      .cls-1 {
        fill: #231f20;
      }

      .cls-2 {
        fill: #ed1c24;
      }
    </style>
  </defs>
  <rect class="cls-2" x="886.73" y="240.81" width="63.13" height="63.13" rx="9.76" ry="9.76"/>
  <path d="M283.13,121.58c5.62-3.31,11.87-4.97,18.75-4.97v33.94h-8.81c-8,0-14,1.72-18,5.16-4,3.44-6,9.47-6,18.09v48.56h-32.06v-104.63h32.06v17.44c3.75-5.75,8.44-10.28,14.06-13.59Z"/>
  <path d="M415.32,177.74h-72.56c.5,6.5,2.59,11.47,6.28,14.91,3.69,3.44,8.22,5.16,13.59,5.16,8,0,13.56-3.38,16.69-10.12h34.13c-1.75,6.88-4.91,13.06-9.47,18.56-4.56,5.5-10.28,9.81-17.16,12.94-6.88,3.13-14.56,4.69-23.06,4.69-10.25,0-19.38-2.19-27.38-6.56-8-4.37-14.25-10.62-18.75-18.75-4.5-8.12-6.75-17.63-6.75-28.5s2.22-20.37,6.66-28.5c4.44-8.12,10.66-14.37,18.66-18.75,8-4.37,17.19-6.56,27.56-6.56s19.12,2.13,27,6.38c7.88,4.25,14.03,10.31,18.47,18.19,4.44,7.88,6.66,17.06,6.66,27.56,0,3-.19,6.13-.56,9.38ZM383.07,159.92c0-5.5-1.88-9.87-5.62-13.12-3.75-3.25-8.44-4.88-14.06-4.88s-9.91,1.56-13.59,4.69c-3.69,3.13-5.97,7.56-6.84,13.31h40.12Z"/>
  <path d="M432.48,141.55c4.06-8.12,9.59-14.37,16.59-18.75,7-4.37,14.81-6.56,23.44-6.56,7.37,0,13.84,1.5,19.41,4.5,5.56,3,9.84,6.94,12.84,11.81v-14.81h32.06v104.63h-32.06v-14.81c-3.13,4.88-7.47,8.81-13.03,11.81-5.56,3-12.03,4.5-19.41,4.5-8.5,0-16.25-2.22-23.25-6.66-7-4.44-12.53-10.75-16.59-18.94-4.06-8.19-6.09-17.66-6.09-28.41s2.03-20.19,6.09-28.31ZM498.1,151.11c-4.44-4.62-9.84-6.94-16.22-6.94s-11.78,2.28-16.22,6.84c-4.44,4.56-6.66,10.85-6.66,18.84s2.22,14.34,6.66,19.03c4.44,4.69,9.84,7.03,16.22,7.03s11.78-2.31,16.22-6.94c4.44-4.62,6.66-10.94,6.66-18.94s-2.22-14.31-6.66-18.94Z"/>
  <path d="M618.38,195.18v27.19h-16.31c-11.62,0-20.69-2.84-27.19-8.53-6.5-5.69-9.75-14.97-9.75-27.84v-41.63h-12.75v-26.62h12.75v-25.5h32.06v25.5h21v26.62h-21v42c0,3.13.75,5.38,2.25,6.75,1.5,1.38,4,2.06,7.5,2.06h11.44Z"/>
  <path d="M734.26,177.74h-72.56c.5,6.5,2.59,11.47,6.28,14.91,3.69,3.44,8.22,5.16,13.59,5.16,8,0,13.56-3.38,16.69-10.12h34.13c-1.75,6.88-4.91,13.06-9.47,18.56-4.56,5.5-10.28,9.81-17.16,12.94-6.88,3.13-14.56,4.69-23.06,4.69-10.25,0-19.38-2.19-27.38-6.56-8-4.37-14.25-10.62-18.75-18.75-4.5-8.12-6.75-17.63-6.75-28.5s2.22-20.37,6.66-28.5c4.44-8.12,10.66-14.37,18.66-18.75,8-4.37,17.19-6.56,27.56-6.56s19.12,2.13,27,6.38c7.88,4.25,14.03,10.31,18.47,18.19,4.44,7.88,6.66,17.06,6.66,27.56,0,3-.19,6.13-.56,9.38ZM702.01,159.92c0-5.5-1.88-9.87-5.62-13.12-3.75-3.25-8.44-4.88-14.06-4.88s-9.91,1.56-13.59,4.69c-3.69,3.13-5.97,7.56-6.84,13.31h40.12Z"/>
  <path class="cls-2" d="M751.42,141.55c4.06-8.12,9.59-14.37,16.59-18.75,7-4.37,14.81-6.56,23.44-6.56,7.37,0,13.84,1.5,19.41,4.5,5.56,3,9.84,6.94,12.84,11.81v-14.81h32.06v104.63h-32.06v-14.81c-3.13,4.88-7.47,8.81-13.03,11.81-5.56,3-12.03,4.5-19.41,4.5-8.5,0-16.25-2.22-23.25-6.66-7-4.44-12.53-10.75-16.59-18.94-4.06-8.19-6.09-17.66-6.09-28.41s2.03-20.19,6.09-28.31ZM817.04,151.11c-4.44-4.62-9.84-6.94-16.22-6.94s-11.78,2.28-16.22,6.84c-4.44,4.56-6.66,10.85-6.66,18.84s2.22,14.34,6.66,19.03c4.44,4.69,9.84,7.03,16.22,7.03s11.78-2.31,16.22-6.94c4.44-4.62,6.66-10.94,6.66-18.94s-2.22-14.31-6.66-18.94Z"/>
  <g>
    <path d="M427.51,257.51c2.58-4.82,6.16-8.55,10.75-11.21,4.59-2.65,9.84-3.98,15.76-3.98,7.66,0,13.98,1.86,18.95,5.58,4.97,3.72,8.25,8.88,9.84,15.48h-11.15c-1.06-3.79-3.13-6.79-6.2-8.99-3.07-2.2-6.89-3.3-11.44-3.3-5.92,0-10.7,2.03-14.34,6.09-3.64,4.06-5.46,9.81-5.46,17.24s1.82,13.32,5.46,17.41c3.64,4.1,8.42,6.15,14.34,6.15,4.55,0,8.35-1.06,11.38-3.19,3.03-2.12,5.12-5.16,6.26-9.11h11.15c-1.67,6.37-5.01,11.48-10.02,15.31-5.01,3.83-11.27,5.75-18.78,5.75-5.92,0-11.17-1.33-15.76-3.98-4.59-2.66-8.18-6.41-10.75-11.27-2.58-4.86-3.87-10.55-3.87-17.07s1.29-12.08,3.87-16.9Z"/>
    <path d="M507.92,302.75c-4.74-2.66-8.46-6.43-11.15-11.32-2.69-4.89-4.04-10.57-4.04-17.02s1.38-12.01,4.15-16.9c2.77-4.89,6.54-8.65,11.32-11.27,4.78-2.62,10.13-3.93,16.05-3.93s11.27,1.31,16.05,3.93c4.78,2.62,8.55,6.36,11.32,11.21,2.77,4.86,4.15,10.51,4.15,16.96s-1.42,12.12-4.27,17.02c-2.85,4.89-6.7,8.67-11.55,11.32-4.86,2.66-10.24,3.98-16.16,3.98s-11.14-1.33-15.88-3.98ZM534.27,295.01c3.26-1.75,5.9-4.36,7.91-7.85,2.01-3.49,3.02-7.74,3.02-12.75s-.99-9.26-2.96-12.75c-1.97-3.49-4.55-6.09-7.74-7.8-3.19-1.71-6.64-2.56-10.36-2.56s-7.27.85-10.41,2.56c-3.15,1.71-5.67,4.31-7.57,7.8-1.9,3.49-2.85,7.74-2.85,12.75s.93,9.37,2.79,12.86c1.86,3.49,4.34,6.09,7.46,7.8,3.11,1.71,6.52,2.56,10.24,2.56s7.21-.87,10.47-2.62Z"/>
    <path d="M618.26,249.09c4.7,4.59,7.06,11.21,7.06,19.86v36.76h-10.24v-35.28c0-6.22-1.56-10.98-4.67-14.28-3.11-3.3-7.36-4.95-12.75-4.95s-9.81,1.71-13.03,5.12c-3.23,3.42-4.84,8.38-4.84,14.91v34.49h-10.36v-62.37h10.36v8.88c2.05-3.19,4.84-5.65,8.37-7.4,3.53-1.74,7.42-2.62,11.67-2.62,7.59,0,13.73,2.3,18.44,6.89Z"/>
    <path d="M654.91,251.88v36.76c0,3.04.64,5.18,1.94,6.43,1.29,1.25,3.53,1.88,6.71,1.88h7.62v8.76h-9.33c-5.77,0-10.09-1.33-12.98-3.98-2.88-2.66-4.32-7.02-4.32-13.09v-36.76h-8.08v-8.54h8.08v-15.71h10.36v15.71h16.28v8.54h-16.28Z"/>
    <path d="M740.27,278.4h-49.85c.38,6.15,2.48,10.95,6.32,14.4,3.83,3.45,8.48,5.18,13.94,5.18,4.48,0,8.21-1.04,11.21-3.13,3-2.09,5.1-4.87,6.32-8.37h11.15c-1.67,6-5.01,10.87-10.02,14.62s-11.23,5.63-18.67,5.63c-5.92,0-11.21-1.33-15.88-3.98-4.67-2.66-8.33-6.43-10.98-11.32-2.66-4.89-3.98-10.57-3.98-17.02s1.29-12.1,3.87-16.96c2.58-4.86,6.2-8.59,10.87-11.21,4.67-2.62,10.03-3.93,16.1-3.93s11.15,1.29,15.71,3.87c4.55,2.58,8.06,6.13,10.53,10.64,2.46,4.51,3.7,9.62,3.7,15.31,0,1.97-.11,4.06-.34,6.26ZM727.29,259.79c-1.75-2.85-4.12-5.01-7.11-6.49-3-1.48-6.32-2.22-9.96-2.22-5.24,0-9.69,1.67-13.37,5.01-3.68,3.34-5.79,7.97-6.32,13.89h39.38c0-3.94-.87-7.34-2.62-10.19Z"/>
    <path d="M803.09,249.09c4.7,4.59,7.06,11.21,7.06,19.86v36.76h-10.24v-35.28c0-6.22-1.56-10.98-4.67-14.28-3.11-3.3-7.36-4.95-12.75-4.95s-9.81,1.71-13.03,5.12c-3.23,3.42-4.84,8.38-4.84,14.91v34.49h-10.36v-62.37h10.36v8.88c2.05-3.19,4.84-5.65,8.37-7.4,3.53-1.74,7.42-2.62,11.67-2.62,7.59,0,13.73,2.3,18.44,6.89Z"/>
    <path d="M839.74,251.88v36.76c0,3.04.64,5.18,1.94,6.43,1.29,1.25,3.53,1.88,6.71,1.88h7.62v8.76h-9.33c-5.77,0-10.09-1.33-12.97-3.98-2.88-2.66-4.33-7.02-4.33-13.09v-36.76h-8.08v-8.54h8.08v-15.71h10.36v15.71h16.28v8.54h-16.28Z"/>
  </g>
  <path class="cls-2" d="M241.9,130.19L120.1,59.86c-27.44-15.84-61.74,3.96-61.74,35.65v140.65c0,31.68,34.3,51.49,61.74,35.65l121.8-70.32c27.44-15.84,27.44-55.45,0-71.29Z"/>
  <path class="cls-1" d="M227.9,221.43l-4.85,4.71c-15.61,15.18-36.23,23.62-58.04,23.76h-.56c-21.67,0-42.23-8.22-57.95-23.18-33.57-31.97-34.88-85.29-2.92-118.86,15.49-16.26,36.38-25.52,58.83-26.08,22.48-.54,43.77,7.68,60.03,23.16l4.71,4.48-29.92,31.43-4.71-4.48c-7.87-7.49-18.19-11.46-29.04-11.21-10.87.27-20.98,4.75-28.47,12.62-15.47,16.25-14.83,42.05,1.41,57.51,15.51,14.77,39.95,14.96,55.64.43l4.48-4.14,31.36,29.85Z"/>
</svg>