<?xml version="1.0" encoding="UTF-8"?>
<svg id="Layer_1" data-name="Layer 1" xmlns="http://www.w3.org/2000/svg" viewBox="0 0 1008.22 360">
  <defs>
    <style>
      .cls-1 {
        fill: #0c27ed;
      }
    </style>
  </defs>
  <rect class="cls-1" x="898.14" y="252.2" width="63.13" height="63.13" rx="9.76" ry="9.76"/>
  <g>
    <path d="M346.08,226.24c-7.12-3.12-12.75-7.41-16.88-12.84s-6.44-11.53-6.94-18.28h31.69c.38,3.63,2.06,6.56,5.06,8.81s6.69,3.38,11.06,3.38c4,0,7.09-.78,9.28-2.34,2.19-1.56,3.28-3.59,3.28-6.09,0-3-1.56-5.22-4.69-6.66-3.13-1.44-8.19-3.03-15.19-4.78-7.5-1.75-13.75-3.59-18.75-5.53-5-1.94-9.31-5-12.94-9.19-3.63-4.19-5.44-9.84-5.44-16.97,0-6,1.66-11.47,4.97-16.41,3.31-4.94,8.19-8.84,14.63-11.72,6.44-2.87,14.09-4.31,22.97-4.31,13.13,0,23.47,3.25,31.03,9.75,7.56,6.5,11.91,15.13,13.03,25.88h-29.62c-.5-3.62-2.09-6.5-4.78-8.62-2.69-2.12-6.22-3.19-10.59-3.19-3.75,0-6.63.72-8.62,2.16-2,1.44-3,3.41-3,5.91,0,3,1.59,5.25,4.78,6.75s8.16,3,14.91,4.5c7.75,2,14.06,3.97,18.94,5.91,4.88,1.94,9.16,5.06,12.84,9.38,3.69,4.31,5.59,10.1,5.72,17.34,0,6.13-1.72,11.6-5.16,16.41-3.44,4.81-8.38,8.6-14.81,11.34-6.44,2.75-13.91,4.12-22.41,4.12-9.13,0-17.25-1.56-24.38-4.69Z"/>
    <path d="M452.49,224.37c-8.19-4.37-14.63-10.62-19.31-18.75-4.69-8.12-7.03-17.63-7.03-28.5s2.37-20.22,7.12-28.41c4.75-8.19,11.25-14.47,19.5-18.84,8.25-4.37,17.5-6.56,27.75-6.56s19.5,2.19,27.75,6.56c8.25,4.38,14.75,10.66,19.5,18.84,4.75,8.19,7.12,17.66,7.12,28.41s-2.41,20.22-7.22,28.41c-4.81,8.19-11.38,14.47-19.69,18.84-8.31,4.38-17.6,6.56-27.84,6.56s-19.47-2.19-27.66-6.56ZM495.8,196.43c4.31-4.5,6.47-10.94,6.47-19.31s-2.09-14.81-6.28-19.31c-4.19-4.5-9.35-6.75-15.47-6.75s-11.44,2.22-15.56,6.66c-4.12,4.44-6.19,10.91-6.19,19.41s2.03,14.81,6.09,19.31c4.06,4.5,9.16,6.75,15.28,6.75s11.34-2.25,15.66-6.75Z"/>
    <path d="M604.46,151.43h-17.25v78h-32.06v-78h-11.62v-26.62h11.62v-3c0-12.87,3.69-22.66,11.06-29.34,7.37-6.69,18.19-10.03,32.44-10.03,2.37,0,4.13.06,5.25.19v27.19c-6.13-.38-10.44.5-12.94,2.63-2.5,2.13-3.75,5.94-3.75,11.44v.94h17.25v26.62Z"/>
    <path d="M677.77,202.24v27.19h-16.31c-11.62,0-20.69-2.84-27.19-8.53-6.5-5.69-9.75-14.97-9.75-27.84v-41.63h-12.75v-26.62h12.75v-25.5h32.06v25.5h21v26.62h-21v42c0,3.13.75,5.38,2.25,6.75,1.5,1.38,4,2.06,7.5,2.06h11.44Z"/>
    <path d="M695.3,148.62c4.06-8.12,9.59-14.37,16.59-18.75,7-4.37,14.81-6.56,23.44-6.56,7.37,0,13.84,1.5,19.41,4.5,5.56,3,9.84,6.94,12.84,11.81v-14.81h32.06v104.63h-32.06v-14.81c-3.13,4.88-7.47,8.81-13.03,11.81-5.56,3-12.03,4.5-19.41,4.5-8.5,0-16.25-2.22-23.25-6.66-7-4.44-12.53-10.75-16.59-18.94-4.06-8.19-6.09-17.66-6.09-28.41s2.03-20.19,6.09-28.31ZM760.93,158.18c-4.44-4.62-9.84-6.94-16.22-6.94s-11.78,2.28-16.22,6.84c-4.44,4.56-6.66,10.85-6.66,18.84s2.22,14.34,6.66,19.03c4.44,4.69,9.84,7.03,16.22,7.03s11.78-2.31,16.22-6.94c4.44-4.62,6.66-10.94,6.66-18.94s-2.22-14.31-6.66-18.94Z"/>
    <path d="M854.96,90.68v138.75h-32.06V90.68h32.06Z"/>
  </g>
  <g>
    <path d="M618.22,264.58c2.58-4.82,6.16-8.55,10.76-11.21,4.59-2.65,9.84-3.98,15.76-3.98,7.66,0,13.98,1.86,18.95,5.58,4.97,3.72,8.25,8.88,9.84,15.48h-11.15c-1.06-3.79-3.13-6.79-6.2-8.99-3.07-2.2-6.89-3.3-11.44-3.3-5.92,0-10.7,2.03-14.34,6.09-3.64,4.06-5.46,9.81-5.46,17.24s1.82,13.32,5.46,17.41c3.64,4.1,8.42,6.15,14.34,6.15,4.55,0,8.35-1.06,11.38-3.19,3.03-2.12,5.12-5.16,6.26-9.11h11.15c-1.67,6.37-5.01,11.48-10.02,15.31-5.01,3.83-11.27,5.75-18.78,5.75-5.92,0-11.17-1.33-15.76-3.98-4.59-2.66-8.18-6.41-10.76-11.27-2.58-4.86-3.87-10.55-3.87-17.07s1.29-12.08,3.87-16.9Z"/>
    <path d="M698.62,309.82c-4.74-2.66-8.46-6.43-11.15-11.32-2.69-4.89-4.04-10.57-4.04-17.02s1.38-12.01,4.15-16.9c2.77-4.89,6.54-8.65,11.32-11.27,4.78-2.62,10.13-3.93,16.05-3.93s11.27,1.31,16.05,3.93c4.78,2.62,8.55,6.36,11.32,11.21,2.77,4.86,4.15,10.51,4.15,16.96s-1.42,12.12-4.27,17.02c-2.85,4.89-6.7,8.67-11.55,11.32-4.86,2.66-10.24,3.98-16.16,3.98s-11.14-1.33-15.88-3.98ZM724.97,302.08c3.26-1.75,5.9-4.36,7.91-7.85,2.01-3.49,3.02-7.74,3.02-12.75s-.99-9.26-2.96-12.75c-1.97-3.49-4.55-6.09-7.74-7.8-3.19-1.71-6.64-2.56-10.36-2.56s-7.27.85-10.41,2.56c-3.15,1.71-5.67,4.31-7.57,7.8-1.9,3.49-2.85,7.74-2.85,12.75s.93,9.37,2.79,12.86c1.86,3.49,4.34,6.09,7.45,7.8,3.11,1.71,6.52,2.56,10.24,2.56s7.21-.87,10.47-2.62Z"/>
    <path d="M778.29,252.23c3.38-1.97,7.49-2.96,12.35-2.96v10.7h-2.73c-11.61,0-17.41,6.3-17.41,18.89v33.92h-10.36v-62.37h10.36v10.13c1.82-3.57,4.42-6.33,7.8-8.31Z"/>
    <path d="M859.16,285.46h-49.85c.38,6.15,2.48,10.95,6.32,14.4,3.83,3.45,8.48,5.18,13.94,5.18,4.48,0,8.21-1.04,11.21-3.13,3-2.09,5.1-4.87,6.32-8.37h11.15c-1.67,6-5.01,10.87-10.02,14.62s-11.23,5.63-18.67,5.63c-5.92,0-11.21-1.33-15.88-3.98-4.67-2.66-8.33-6.43-10.98-11.32-2.66-4.89-3.98-10.57-3.98-17.02s1.29-12.1,3.87-16.96c2.58-4.86,6.2-8.59,10.87-11.21,4.67-2.62,10.03-3.93,16.11-3.93s11.15,1.29,15.71,3.87c4.55,2.58,8.06,6.13,10.53,10.64,2.46,4.51,3.7,9.62,3.7,15.31,0,1.97-.11,4.06-.34,6.26ZM846.18,266.85c-1.75-2.85-4.12-5.01-7.11-6.49-3-1.48-6.32-2.22-9.96-2.22-5.24,0-9.69,1.67-13.37,5.01-3.68,3.34-5.79,7.97-6.32,13.89h39.38c0-3.94-.87-7.34-2.62-10.19Z"/>
  </g>
  <g>
    <path class="cls-1" d="M77.85,187.24l-33.2-36.14,33.2-36.14h35.16l-33.36,36.14,33.36,36.14h-35.16Z"/>
    <path class="cls-1" d="M197.9,52.96l-43.83,185.95h-26.99l43.83-185.95h26.99Z"/>
    <path class="cls-1" d="M209.84,114.95h35.16l33.2,36.14-33.2,36.14h-35.16l33.36-36.14-33.36-36.14Z"/>
  </g>
</svg>